<svg width="111" height="148" viewBox="0 0 111 148" fill="none" xmlns="http://www.w3.org/2000/svg">
<rect x="4" y="34" width="105" height="90" fill="white"/>
<path d="M6 119V38H27.1C30.5667 38 33.8333 38.2667 36.9 38.8C40.0333 39.3333 42.8 40.3667 45.2 41.9C47.6 43.3667 49.4667 45.5 50.8 48.3C52.2 51.0333 52.9 54.6667 52.9 59.2C52.9 62.4667 52.4 65.2333 51.4 67.5C50.4667 69.7 49.1 71.4667 47.3 72.8C45.5667 74.1333 43.4667 75.0333 41 75.5C44.1333 75.9 46.7667 76.9333 48.9 78.6C51.0333 80.2 52.6333 82.3667 53.7 85.1C54.8333 87.8333 55.4 91.1333 55.4 95C55.4 99.2 54.8333 102.833 53.7 105.9C52.6333 108.9 51.0667 111.367 49 113.3C46.9333 115.233 44.3667 116.667 41.3 117.6C38.3 118.533 34.8333 119 30.9 119H6ZM23.9 106.5H27.7C31.6333 106.5 34.3333 105.5 35.8 103.5C37.3333 101.5 38.1 98.5667 38.1 94.7C38.1 91.6333 37.7667 89.2 37.1 87.4C36.4333 85.6 35.3333 84.3 33.8 83.5C32.2667 82.6333 30.2 82.2 27.6 82.2H23.9V106.5ZM23.9 70.4H27.4C30.1333 70.4 32.2 70 33.6 69.2C35 68.3333 35.9333 67.1 36.4 65.5C36.9333 63.9 37.2 61.9667 37.2 59.7C37.2 57.5667 36.8 55.8 36 54.4C35.2667 52.9333 34.1333 51.8333 32.6 51.1C31.1333 50.3667 29.2667 50 27 50H23.9V70.4ZM86.2891 120.2C81.2224 120.2 76.9891 119.3 73.5891 117.5C70.1891 115.7 67.6224 112.933 65.8891 109.2C64.1557 105.4 63.1891 100.5 62.9891 94.5L78.2891 92.2C78.3557 95.6667 78.6557 98.4667 79.1891 100.6C79.7891 102.733 80.5891 104.267 81.5891 105.2C82.6557 106.133 83.9224 106.6 85.3891 106.6C87.2557 106.6 88.4557 105.967 88.9891 104.7C89.5891 103.433 89.8891 102.1 89.8891 100.7C89.8891 97.3667 89.0891 94.5667 87.4891 92.3C85.8891 89.9667 83.7224 87.6333 80.9891 85.3L73.9891 79.2C70.9224 76.6 68.3224 73.6667 66.1891 70.4C64.1224 67.0667 63.0891 62.9667 63.0891 58.1C63.0891 51.2333 65.1224 46 69.1891 42.4C73.2557 38.7333 78.7891 36.9 85.7891 36.9C90.1224 36.9 93.5891 37.6333 96.1891 39.1C98.8557 40.5667 100.856 42.5 102.189 44.9C103.589 47.2333 104.522 49.7333 104.989 52.4C105.522 55 105.822 57.5 105.889 59.9L90.4891 61.8C90.4224 59.4 90.2557 57.3333 89.9891 55.6C89.7891 53.8 89.3224 52.4333 88.5891 51.5C87.8557 50.5 86.7224 50 85.1891 50C83.5224 50 82.2891 50.7 81.4891 52.1C80.7557 53.5 80.3891 54.9 80.3891 56.3C80.3891 59.3 81.0891 61.7667 82.4891 63.7C83.9557 65.5667 85.8557 67.5333 88.1891 69.6L94.8891 75.5C98.4224 78.5 101.389 81.9 103.789 85.7C106.256 89.5 107.489 94.2 107.489 99.8C107.489 103.6 106.622 107.067 104.889 110.2C103.156 113.267 100.689 115.7 97.4891 117.5C94.3557 119.3 90.6224 120.2 86.2891 120.2Z" fill="black"/>
</svg>
