<svg width="165" height="91" viewBox="0 0 165 91" fill="none" xmlns="http://www.w3.org/2000/svg">
<path d="M2.1 42.1116V13.7616H9.485C10.6983 13.7616 11.8417 13.8549 12.915 14.0416C14.0117 14.2282 14.98 14.5899 15.82 15.1266C16.66 15.6399 17.3133 16.3866 17.78 17.3666C18.27 18.3232 18.515 19.5949 18.515 21.1816C18.515 22.3249 18.34 23.2932 17.99 24.0866C17.6633 24.8566 17.185 25.4749 16.555 25.9416C15.9483 26.4082 15.2133 26.7232 14.35 26.8866C15.4467 27.0266 16.3683 27.3882 17.115 27.9716C17.8617 28.5316 18.4217 29.2899 18.795 30.2466C19.1917 31.2032 19.39 32.3582 19.39 33.7116C19.39 35.1816 19.1917 36.4532 18.795 37.5266C18.4217 38.5766 17.8733 39.4399 17.15 40.1166C16.4267 40.7932 15.5283 41.2949 14.455 41.6216C13.405 41.9482 12.1917 42.1116 10.815 42.1116H2.1ZM8.365 37.7366H9.695C11.0717 37.7366 12.0167 37.3866 12.53 36.6866C13.0667 35.9866 13.335 34.9599 13.335 33.6066C13.335 32.5332 13.2183 31.6816 12.985 31.0516C12.7517 30.4216 12.3667 29.9666 11.83 29.6866C11.2933 29.3832 10.57 29.2316 9.66 29.2316H8.365V37.7366ZM8.365 25.1016H9.59C10.5467 25.1016 11.27 24.9616 11.76 24.6816C12.25 24.3782 12.5767 23.9466 12.74 23.3866C12.9267 22.8266 13.02 22.1499 13.02 21.3566C13.02 20.6099 12.88 19.9916 12.6 19.5016C12.3433 18.9882 11.9467 18.6032 11.41 18.3466C10.8967 18.0899 10.2433 17.9616 9.45 17.9616H8.365V25.1016ZM22.7812 42.1116V13.7616H29.0462V25.2416H33.4212V13.7616H39.7212V42.1116H33.4212V29.7216H29.0462V42.1116H22.7812ZM42.6735 42.1116L48.0285 13.7616H55.1685L60.4535 42.1116H54.6785L53.7335 36.1266H49.5685L48.5885 42.1116H42.6735ZM50.1285 32.3816H53.1385L51.6335 21.3216L50.1285 32.3816ZM70.5674 42.5316C68.794 42.5316 67.3124 42.2166 66.1224 41.5866C64.9324 40.9566 64.034 39.9882 63.4274 38.6816C62.8207 37.3516 62.4824 35.6366 62.4124 33.5366L67.7674 32.7316C67.7907 33.9449 67.8957 34.9249 68.0824 35.6716C68.2924 36.4182 68.5724 36.9549 68.9224 37.2816C69.2957 37.6082 69.739 37.7716 70.2524 37.7716C70.9057 37.7716 71.3257 37.5499 71.5124 37.1066C71.7224 36.6632 71.8274 36.1966 71.8274 35.7066C71.8274 34.5399 71.5474 33.5599 70.9874 32.7666C70.4274 31.9499 69.669 31.1332 68.7124 30.3166L66.2624 28.1816C65.189 27.2716 64.279 26.2449 63.5324 25.1016C62.809 23.9349 62.4474 22.4999 62.4474 20.7966C62.4474 18.3932 63.159 16.5616 64.5824 15.3016C66.0057 14.0182 67.9424 13.3766 70.3924 13.3766C71.909 13.3766 73.1224 13.6332 74.0324 14.1466C74.9657 14.6599 75.6657 15.3366 76.1324 16.1766C76.6224 16.9932 76.949 17.8682 77.1124 18.8016C77.299 19.7116 77.404 20.5866 77.4274 21.4266L72.0374 22.0916C72.014 21.2516 71.9557 20.5282 71.8624 19.9216C71.7924 19.2916 71.629 18.8132 71.3724 18.4866C71.1157 18.1366 70.719 17.9616 70.1824 17.9616C69.599 17.9616 69.1674 18.2066 68.8874 18.6966C68.6307 19.1866 68.5024 19.6766 68.5024 20.1666C68.5024 21.2166 68.7474 22.0799 69.2374 22.7566C69.7507 23.4099 70.4157 24.0982 71.2324 24.8216L73.5774 26.8866C74.814 27.9366 75.8524 29.1266 76.6924 30.4566C77.5557 31.7866 77.9874 33.4316 77.9874 35.3916C77.9874 36.7216 77.684 37.9349 77.0774 39.0316C76.4707 40.1049 75.6074 40.9566 74.4874 41.5866C73.3907 42.2166 72.084 42.5316 70.5674 42.5316ZM81.0209 42.1116V13.7616H87.2859V25.3466L92.0459 13.7616H98.1709L92.9209 26.5716L98.4159 42.1116H92.0459L87.9509 29.5816L87.2859 30.7016V42.1116H81.0209ZM99.5143 42.1116L104.869 13.7616H112.009L117.294 42.1116H111.519L110.574 36.1266H106.409L105.429 42.1116H99.5143ZM106.969 32.3816H109.979L108.474 21.3216L106.969 32.3816ZM120.157 42.1116V13.7616H127.962C129.875 13.7616 131.532 13.9716 132.932 14.3916C134.332 14.8116 135.417 15.5699 136.187 16.6666C136.98 17.7399 137.377 19.2682 137.377 21.2516C137.377 22.4182 137.283 23.4566 137.097 24.3666C136.91 25.2766 136.56 26.0699 136.047 26.7466C135.557 27.3999 134.845 27.9482 133.912 28.3916L137.797 42.1116H131.322L128.207 29.4066H126.422V42.1116H120.157ZM126.422 25.8016H128.172C129.058 25.8016 129.747 25.6499 130.237 25.3466C130.727 25.0199 131.065 24.5649 131.252 23.9816C131.462 23.3749 131.567 22.6516 131.567 21.8116C131.567 20.5982 131.345 19.6532 130.902 18.9766C130.458 18.2999 129.642 17.9616 128.452 17.9616H126.422V25.8016ZM141.913 23.7016L141.493 21.9166C142.403 21.8932 142.986 21.5899 143.243 21.0066C143.5 20.4232 143.628 19.6766 143.628 18.7666H141.213V13.7616H146.218C146.218 14.4616 146.206 15.1382 146.183 15.7916C146.183 16.4449 146.171 17.0632 146.148 17.6466C146.078 19.6532 145.751 21.1582 145.168 22.1616C144.608 23.1649 143.523 23.6782 141.913 23.7016ZM156.632 42.5316C154.858 42.5316 153.377 42.2166 152.187 41.5866C150.997 40.9566 150.098 39.9882 149.492 38.6816C148.885 37.3516 148.547 35.6366 148.477 33.5366L153.832 32.7316C153.855 33.9449 153.96 34.9249 154.147 35.6716C154.357 36.4182 154.637 36.9549 154.987 37.2816C155.36 37.6082 155.803 37.7716 156.317 37.7716C156.97 37.7716 157.39 37.5499 157.577 37.1066C157.787 36.6632 157.892 36.1966 157.892 35.7066C157.892 34.5399 157.612 33.5599 157.052 32.7666C156.492 31.9499 155.733 31.1332 154.777 30.3166L152.327 28.1816C151.253 27.2716 150.343 26.2449 149.597 25.1016C148.873 23.9349 148.512 22.4999 148.512 20.7966C148.512 18.3932 149.223 16.5616 150.647 15.3016C152.07 14.0182 154.007 13.3766 156.457 13.3766C157.973 13.3766 159.187 13.6332 160.097 14.1466C161.03 14.6599 161.73 15.3366 162.197 16.1766C162.687 16.9932 163.013 17.8682 163.177 18.8016C163.363 19.7116 163.468 20.5866 163.492 21.4266L158.102 22.0916C158.078 21.2516 158.02 20.5282 157.927 19.9216C157.857 19.2916 157.693 18.8132 157.437 18.4866C157.18 18.1366 156.783 17.9616 156.247 17.9616C155.663 17.9616 155.232 18.2066 154.952 18.6966C154.695 19.1866 154.567 19.6766 154.567 20.1666C154.567 21.2166 154.812 22.0799 155.302 22.7566C155.815 23.4099 156.48 24.0982 157.297 24.8216L159.642 26.8866C160.878 27.9366 161.917 29.1266 162.757 30.4566C163.62 31.7866 164.052 33.4316 164.052 35.3916C164.052 36.7216 163.748 37.9349 163.142 39.0316C162.535 40.1049 161.672 40.9566 160.552 41.5866C159.455 42.2166 158.148 42.5316 156.632 42.5316Z" fill="white"/>
<path d="M5.1 80.7639V52.4139H14.62C16.3233 52.4139 17.7233 52.7406 18.82 53.3939C19.9167 54.0239 20.7333 54.9572 21.27 56.1939C21.8067 57.4072 22.075 58.8889 22.075 60.6389C22.075 62.8322 21.7133 64.5122 20.99 65.6789C20.2667 66.8222 19.2867 67.6156 18.05 68.0589C16.8133 68.5022 15.425 68.7239 13.885 68.7239H11.365V80.7639H5.1ZM11.365 64.3489H13.465C14.235 64.3489 14.8183 64.2089 15.215 63.9289C15.6117 63.6489 15.8683 63.2289 15.985 62.6689C16.125 62.1089 16.195 61.3972 16.195 60.5339C16.195 59.8106 16.1367 59.1806 16.02 58.6439C15.9267 58.0839 15.6817 57.6406 15.285 57.3139C14.8883 56.9872 14.27 56.8239 13.43 56.8239H11.365V64.3489ZM33.2151 81.1839C31.0918 81.1839 29.4118 80.8106 28.1751 80.0639C26.9384 79.3172 26.0518 78.2439 25.5151 76.8439C24.9784 75.4439 24.7101 73.7756 24.7101 71.8389V61.3039C24.7101 59.3439 24.9784 57.6756 25.5151 56.2989C26.0518 54.9222 26.9384 53.8722 28.1751 53.1489C29.4118 52.4022 31.0918 52.0289 33.2151 52.0289C35.3618 52.0289 37.0534 52.4022 38.2901 53.1489C39.5501 53.8722 40.4484 54.9222 40.9851 56.2989C41.5218 57.6756 41.7901 59.3439 41.7901 61.3039V71.8389C41.7901 73.7756 41.5218 75.4439 40.9851 76.8439C40.4484 78.2439 39.5501 79.3172 38.2901 80.0639C37.0534 80.8106 35.3618 81.1839 33.2151 81.1839ZM33.2151 76.7389C33.8684 76.7389 34.3468 76.5756 34.6501 76.2489C34.9534 75.9222 35.1518 75.5022 35.2451 74.9889C35.3384 74.4756 35.3851 73.9506 35.3851 73.4139V59.7639C35.3851 59.2039 35.3384 58.6789 35.2451 58.1889C35.1518 57.6756 34.9534 57.2556 34.6501 56.9289C34.3468 56.6022 33.8684 56.4389 33.2151 56.4389C32.6084 56.4389 32.1534 56.6022 31.8501 56.9289C31.5468 57.2556 31.3484 57.6756 31.2551 58.1889C31.1618 58.6789 31.1151 59.2039 31.1151 59.7639V73.4139C31.1151 73.9506 31.1501 74.4756 31.2201 74.9889C31.3134 75.5022 31.5001 75.9222 31.7801 76.2489C32.0834 76.5756 32.5618 76.7389 33.2151 76.7389ZM45.6029 80.7639V52.4139H53.4079C55.3213 52.4139 56.9779 52.6239 58.3779 53.0439C59.7779 53.4639 60.8629 54.2222 61.6329 55.3189C62.4263 56.3922 62.8229 57.9206 62.8229 59.9039C62.8229 61.0706 62.7296 62.1089 62.5429 63.0189C62.3563 63.9289 62.0063 64.7222 61.4929 65.3989C61.0029 66.0522 60.2913 66.6006 59.3579 67.0439L63.2429 80.7639H56.7679L53.6529 68.0589H51.8679V80.7639H45.6029ZM51.8679 64.4539H53.6179C54.5046 64.4539 55.1929 64.3022 55.6829 63.9989C56.1729 63.6722 56.5113 63.2172 56.6979 62.6339C56.9079 62.0272 57.0129 61.3039 57.0129 60.4639C57.0129 59.2506 56.7913 58.3056 56.3479 57.6289C55.9046 56.9522 55.0879 56.6139 53.8979 56.6139H51.8679V64.4539ZM68.8708 80.7639V57.0689H64.6008V52.4139H79.4058V57.0689H75.1708V80.7639H68.8708ZM81.9017 80.7639V52.4139H94.1517V56.6489H88.1667V63.7889H93.3817V68.1639H88.1667V80.7639H81.9017ZM105.198 81.1839C103.074 81.1839 101.394 80.8106 100.158 80.0639C98.9209 79.3172 98.0342 78.2439 97.4975 76.8439C96.9609 75.4439 96.6925 73.7756 96.6925 71.8389V61.3039C96.6925 59.3439 96.9609 57.6756 97.4975 56.2989C98.0342 54.9222 98.9209 53.8722 100.158 53.1489C101.394 52.4022 103.074 52.0289 105.198 52.0289C107.344 52.0289 109.036 52.4022 110.273 53.1489C111.533 53.8722 112.431 54.9222 112.968 56.2989C113.504 57.6756 113.773 59.3439 113.773 61.3039V71.8389C113.773 73.7756 113.504 75.4439 112.968 76.8439C112.431 78.2439 111.533 79.3172 110.273 80.0639C109.036 80.8106 107.344 81.1839 105.198 81.1839ZM105.198 76.7389C105.851 76.7389 106.329 76.5756 106.633 76.2489C106.936 75.9222 107.134 75.5022 107.228 74.9889C107.321 74.4756 107.368 73.9506 107.368 73.4139V59.7639C107.368 59.2039 107.321 58.6789 107.228 58.1889C107.134 57.6756 106.936 57.2556 106.633 56.9289C106.329 56.6022 105.851 56.4389 105.198 56.4389C104.591 56.4389 104.136 56.6022 103.833 56.9289C103.529 57.2556 103.331 57.6756 103.238 58.1889C103.144 58.6789 103.098 59.2039 103.098 59.7639V73.4139C103.098 73.9506 103.133 74.4756 103.203 74.9889C103.296 75.5022 103.483 75.9222 103.763 76.2489C104.066 76.5756 104.544 76.7389 105.198 76.7389ZM117.585 80.7639V52.4139H123.85V76.5289H130.36V80.7639H117.585ZM133.138 80.7639V52.4139H139.403V80.7639H133.138ZM151.75 81.1839C149.627 81.1839 147.947 80.8106 146.71 80.0639C145.474 79.3172 144.587 78.2439 144.05 76.8439C143.514 75.4439 143.245 73.7756 143.245 71.8389V61.3039C143.245 59.3439 143.514 57.6756 144.05 56.2989C144.587 54.9222 145.474 53.8722 146.71 53.1489C147.947 52.4022 149.627 52.0289 151.75 52.0289C153.897 52.0289 155.589 52.4022 156.825 53.1489C158.085 53.8722 158.984 54.9222 159.52 56.2989C160.057 57.6756 160.325 59.3439 160.325 61.3039V71.8389C160.325 73.7756 160.057 75.4439 159.52 76.8439C158.984 78.2439 158.085 79.3172 156.825 80.0639C155.589 80.8106 153.897 81.1839 151.75 81.1839ZM151.75 76.7389C152.404 76.7389 152.882 76.5756 153.185 76.2489C153.489 75.9222 153.687 75.5022 153.78 74.9889C153.874 74.4756 153.92 73.9506 153.92 73.4139V59.7639C153.92 59.2039 153.874 58.6789 153.78 58.1889C153.687 57.6756 153.489 57.2556 153.185 56.9289C152.882 56.6022 152.404 56.4389 151.75 56.4389C151.144 56.4389 150.689 56.6022 150.385 56.9289C150.082 57.2556 149.884 57.6756 149.79 58.1889C149.697 58.6789 149.65 59.2039 149.65 59.7639V73.4139C149.65 73.9506 149.685 74.4756 149.755 74.9889C149.849 75.5022 150.035 75.9222 150.315 76.2489C150.619 76.5756 151.097 76.7389 151.75 76.7389Z" fill="white"/>
</svg>
